<svg width="24" height="24" viewBox="0 0 24 24" fill="none" xmlns="http://www.w3.org/2000/svg">
<path fill-rule="evenodd" clip-rule="evenodd" d="M18.7071 15.2929C19.0976 15.6834 19.0976 16.3166 18.7071 16.7071L12.7071 22.7071C12.3166 23.0976 11.6834 23.0976 11.2929 22.7071L5.29289 16.7071C4.90237 16.3166 4.90237 15.6834 5.29289 15.2929C5.68342 14.9024 6.31658 14.9024 6.70711 15.2929L12 20.5858L17.2929 15.2929C17.6834 14.9024 18.3166 14.9024 18.7071 15.2929Z" fill="black"/>
<path fill-rule="evenodd" clip-rule="evenodd" d="M18.7071 8.70711C18.3166 9.09763 17.6834 9.09763 17.2929 8.70711L12 3.41421L6.70711 8.70711C6.31658 9.09763 5.68342 9.09763 5.29289 8.70711C4.90237 8.31658 4.90237 7.68342 5.29289 7.29289L11.2929 1.29289C11.6834 0.902369 12.3166 0.902369 12.7071 1.29289L18.7071 7.29289C19.0976 7.68342 19.0976 8.31658 18.7071 8.70711Z" fill="black"/>
</svg>
